# xmcd
#
# Track frame offsets:
#	150
#	12947
#	24414
#	39015
#	50989
#	64493
#	74917
#	85923
#	95515
#	106743
#	117577
#
# Disc length: 1711 seconds
#
# Revision: 1
# Processed by: cddbd v1.5.2PL0 Copyright (c) Steve Scherf et al.
# Submitted via: audiograbber 1.83.01
#
DISCID=9806ad0b
DTITLE=Johnny Paycheck - Somebody Loves Me
DYEAR=1972
DGENRE=Country
TTITLE0=Somebody Loves Me
TTITLE1=Spread It Around
TTITLE2=I Take It On Home
TTITLE3=Loving An Angel Every Day
TTITLE4=Song Sung Blue
TTITLE5=Life Can Be Beautiful
TTITLE6=The Woman Loves Me Right
TTITLE7=Love Couldn't Be Any Better
TTITLE8=It Takes A Woman's Love
TTITLE9=Without You
TTITLE10=Kissing Yesterday Goodbye
EXTD=
EXTT0=
EXTT1=
EXTT2=
EXTT3=
EXTT4=
EXTT5=
EXTT6=
EXTT7=
EXTT8=
EXTT9=
EXTT10=
PLAYORDER=
